<?xml version="1.0" standalone="no"?>
<!DOCTYPE svg PUBLIC "-//W3C//DTD SVG 20010904//EN"
 "http://www.w3.org/TR/2001/REC-SVG-20010904/DTD/svg10.dtd">
<svg version="1.0" xmlns="http://www.w3.org/2000/svg"
 width="200.000000pt" height="200.000000pt" viewBox="0 0 200.000000 200.000000"
 preserveAspectRatio="xMidYMid meet">
<metadata>
Created by potrace 1.15, written by Peter Selinger 2001-2017
</metadata>
<g transform="translate(0.000000,200.000000) scale(0.100000,-0.100000)"
fill="#000000" stroke="none">
<path d="M805 1884 c-321 -71 -583 -317 -675 -634 -17 -57 -23 -111 -27 -225
-4 -137 -2 -159 21 -248 87 -338 350 -591 688 -662 90 -19 287 -19 378 0 292
61 544 275 651 550 43 110 59 201 59 335 0 130 -15 220 -55 326 -96 256 -325
466 -595 544 -101 30 -341 37 -445 14z m391 -257 c43 -23 95 -62 134 -102 60
-61 63 -66 48 -82 -16 -15 -20 -15 -57 10 -47 31 -61 35 -38 9 25 -27 49 -91
42 -113 -10 -29 -35 -23 -100 24 -106 76 -148 97 -199 97 -26 0 -59 -6 -75
-14 -130 -68 -227 -354 -186 -551 29 -142 100 -258 188 -309 69 -39 118 -41
247 -10 l25 6 -24 -21 c-13 -12 -18 -21 -13 -21 6 0 14 5 17 10 4 6 14 8 23 6
10 -3 31 3 47 14 34 23 56 25 72 9 27 -27 -30 -104 -98 -134 -21 -10 -37 -20
-35 -22 2 -3 22 5 45 17 56 28 52 7 -5 -30 -67 -42 -141 -55 -233 -41 -79 12
-187 61 -196 90 -3 9 -21 27 -40 40 -20 13 -48 38 -62 55 -14 17 -30 30 -35
28 -5 -1 -7 2 -3 8 3 5 -7 22 -22 37 -15 14 -22 23 -15 19 8 -5 7 4 -4 28 -10
19 -21 33 -25 31 -8 -6 -22 25 -14 33 3 3 5 -1 5 -8 0 -7 2 -11 5 -8 10 9 -7
38 -18 31 -6 -4 -8 0 -4 10 3 9 0 47 -8 84 -27 126 -14 325 30 458 6 18 5 18
-5 3 -6 -10 -19 -50 -30 -90 -10 -40 -19 -63 -19 -52 -1 35 38 153 75 226 62
123 185 229 300 257 22 6 73 9 114 7 64 -2 85 -8 146 -39z"/>
</g>
</svg>
